<svg width="32" height="32" viewBox="0 0 32 32" fill="none" xmlns="http://www.w3.org/2000/svg">
<path fill-rule="evenodd" clip-rule="evenodd" d="M18.4817 11.0795L22.2977 15.0795C22.3551 15.1395 22.3831 15.2141 22.4271 15.2808C22.4751 15.3528 22.5324 15.4168 22.5657 15.4968C22.6311 15.6581 22.6671 15.8288 22.6671 15.9995C22.6671 16.1741 22.6311 16.3475 22.5644 16.5101C22.4964 16.6728 22.3991 16.8208 22.2751 16.9435L18.2764 20.9421C17.7551 21.4635 16.9111 21.4635 16.3911 20.9421C15.8697 20.4221 15.8697 19.5781 16.3911 19.0568L18.1151 17.3328H10.6671C9.92972 17.3328 9.33372 16.7368 9.33372 15.9995C9.33372 15.2635 9.92972 14.6661 10.6671 14.6661H18.2177L16.5524 12.9208C16.0444 12.3875 16.0631 11.5448 16.5964 11.0355C17.1297 10.5261 17.9737 10.5475 18.4817 11.0795ZM2.66705 15.9995C2.66705 23.3528 8.64839 29.3328 16.0004 29.3328C23.3524 29.3328 29.3337 23.3528 29.3337 15.9995C29.3337 8.64747 23.3524 2.66614 16.0004 2.66614C8.64839 2.66614 2.66705 8.64747 2.66705 15.9995Z" fill="#F2994A"/>
<mask id="mask0" mask-type="alpha" maskUnits="userSpaceOnUse" x="2" y="2" width="28" height="28">
<path fill-rule="evenodd" clip-rule="evenodd" d="M18.4817 11.0795L22.2977 15.0795C22.3551 15.1395 22.3831 15.2141 22.4271 15.2808C22.4751 15.3528 22.5324 15.4168 22.5657 15.4968C22.6311 15.6581 22.6671 15.8288 22.6671 15.9995C22.6671 16.1741 22.6311 16.3475 22.5644 16.5101C22.4964 16.6728 22.3991 16.8208 22.2751 16.9435L18.2764 20.9421C17.7551 21.4635 16.9111 21.4635 16.3911 20.9421C15.8697 20.4221 15.8697 19.5781 16.3911 19.0568L18.1151 17.3328H10.6671C9.92972 17.3328 9.33372 16.7368 9.33372 15.9995C9.33372 15.2635 9.92972 14.6661 10.6671 14.6661H18.2177L16.5524 12.9208C16.0444 12.3875 16.0631 11.5448 16.5964 11.0355C17.1297 10.5261 17.9737 10.5475 18.4817 11.0795ZM2.66705 15.9995C2.66705 23.3528 8.64839 29.3328 16.0004 29.3328C23.3524 29.3328 29.3337 23.3528 29.3337 15.9995C29.3337 8.64747 23.3524 2.66614 16.0004 2.66614C8.64839 2.66614 2.66705 8.64747 2.66705 15.9995Z" fill="white"/>
</mask>
<g mask="url(#mask0)">
</g>
</svg>
