<svg width="120" height="46" viewBox="0 0 120 46" fill="none" xmlns="http://www.w3.org/2000/svg">
<path d="M22.5779 29.23V37.7024H15.6874C9.25625 37.7024 5.33785 33.7563 5.33785 27.273V16.2703H0V13.922L13.0437 0H15.1109V8.53002H22.424V15.9388C22.4243 15.9824 22.416 16.0257 22.3995 16.066C22.383 16.1064 22.3586 16.1431 22.3278 16.1739C22.2971 16.2048 22.2605 16.2292 22.2202 16.2457C22.1799 16.2623 22.1368 16.2707 22.0933 16.2703H15.3635V25.5486C15.3635 27.6368 16.6222 28.8985 18.7376 28.8985H22.2564C22.3423 28.9014 22.4237 28.9376 22.4837 28.9994C22.5436 29.0612 22.5774 29.1438 22.5779 29.23Z" fill="url(#paint0_linear)"/>
<path d="M40.4273 15.192C40.859 15.19 41.21 15.5402 41.21 15.9728V21.4596C41.21 21.8908 40.8611 22.2404 40.4308 22.2404H38.2241C35.5001 22.2404 34.3608 23.4376 34.3608 26.2924V36.9011C34.3608 37.3323 34.012 37.6819 33.5816 37.6819H27.4525C27.0222 37.6819 26.6733 37.3323 26.6733 36.9011V16.0844C26.6733 15.6531 27.0222 15.3036 27.4525 15.3036H31.3364C31.6353 15.3036 31.9078 15.4748 32.0379 15.7444L32.5082 16.7189C32.7521 17.2243 33.4354 17.3137 33.8595 16.947C35.2734 15.7242 36.9695 15.1977 39.175 15.1977L40.4273 15.192Z" fill="url(#paint1_linear)"/>
<path d="M67.3842 15.2942C67.9464 15.2942 68.3236 15.8727 68.0978 16.3887L59.2194 36.6757C56.2106 43.525 53.4452 46 47.6801 46H45.8271C45.3968 46 45.0479 45.6504 45.0479 45.2192V40.1571C45.0479 39.7259 45.3968 39.3763 45.8271 39.3763H47.161C49.9943 39.3763 50.9235 38.6632 51.9175 36.1249C51.9926 35.9331 51.9852 35.7184 51.9008 35.5306L43.3034 16.3956C43.0712 15.8789 43.4484 15.2942 44.0139 15.2942H50.6294C50.9518 15.2942 51.2408 15.4931 51.3566 15.7945L55.1476 25.6613C55.4071 26.3366 56.3643 26.3256 56.6082 25.6445L60.1298 15.8113C60.2409 15.5011 60.5344 15.2942 60.8632 15.2942H67.3842Z" fill="url(#paint2_linear)"/>
<path d="M71.9849 12.3568C71.9849 11.9255 72.3338 11.5759 72.7642 11.5759H78.907C79.3374 11.5759 79.6862 11.9255 79.6862 12.3568V33.3396C79.6862 33.7708 79.3374 34.1204 78.907 34.1204H72.7642C72.3338 34.1204 71.9849 33.7708 71.9849 33.3396V12.3568Z" fill="url(#paint3_linear)"/>
<path d="M83.6672 8.39562C83.6672 7.96438 84.016 7.61479 84.4464 7.61479H90.5778C91.0081 7.61479 91.357 7.96438 91.357 8.39562V37.3026C91.357 37.7338 91.0081 38.0834 90.5778 38.0834H84.4464C84.016 38.0834 83.6672 37.7338 83.6672 37.3026V8.39562Z" fill="url(#paint4_linear)"/>
<path fill-rule="evenodd" clip-rule="evenodd" d="M119.943 21.2118C119.873 20.4152 119.62 19.6214 119.369 18.856C118.317 15.6373 116.165 13.426 112.999 12.218C109.99 11.0667 106.901 10.9595 103.796 11.7755C101.332 12.4164 99.2508 13.6963 97.69 15.7354C96.3242 17.5146 95.6535 19.5488 95.4508 21.7629C95.2621 23.8373 95.5073 25.8425 96.4259 27.7164C98.7012 32.3685 102.579 34.5508 107.53 34.8107C107.76 34.7933 107.975 34.7779 108.18 34.7633C108.641 34.7305 109.049 34.7013 109.455 34.6607C109.766 34.6246 110.074 34.5715 110.379 34.5017C115.494 33.4085 119.363 29.3157 119.904 24.369C120.017 23.3202 120.03 22.2631 119.943 21.2118ZM117.092 22.6998C116.547 23.495 115.797 23.9341 114.856 24.0516C112.464 24.3582 110.054 24.5014 107.642 24.4803C105.285 24.5191 102.862 24.3351 100.446 24.0475C98.9917 23.8746 97.8564 22.6307 97.7931 21.1676C97.761 20.418 97.7478 19.6692 98.1253 18.9805C98.6866 17.9557 99.5781 17.4461 100.727 17.3175C103.415 17.016 106.111 16.8217 108.815 16.9213C109.986 16.9651 111.156 17.0556 112.325 17.1462C113.004 17.1987 113.683 17.2513 114.362 17.2947C115.298 17.3548 116.137 17.6114 116.791 18.3187C117.308 18.8736 117.599 19.5988 117.609 20.3544C117.638 21.1814 117.585 21.9793 117.092 22.6998Z" fill="url(#paint5_linear)"/>
<path d="M103.205 20.0386L102.447 19.2482L100.601 21.0778L102.425 22.8908L103.254 22.1199L102.044 21.0495L103.205 20.0386Z" fill="url(#paint6_linear)"/>
<path d="M113.835 21.1663L112.588 20.0468C112.922 19.7647 113.19 19.5372 113.442 19.3229L115.23 21.1075L113.393 22.9316L112.604 22.18L113.835 21.1663Z" fill="url(#paint7_linear)"/>
<defs>
<linearGradient id="paint0_linear" x1="126.901" y1="23.4248" x2="24.4898" y2="23.4248" gradientUnits="userSpaceOnUse">
<stop stop-color="#396AFC"/>
<stop offset="1" stop-color="#2948FF"/>
</linearGradient>
<linearGradient id="paint1_linear" x1="126.901" y1="23.4248" x2="24.4898" y2="23.4248" gradientUnits="userSpaceOnUse">
<stop stop-color="#396AFC"/>
<stop offset="1" stop-color="#2948FF"/>
</linearGradient>
<linearGradient id="paint2_linear" x1="126.901" y1="23.4248" x2="24.4898" y2="23.4248" gradientUnits="userSpaceOnUse">
<stop stop-color="#396AFC"/>
<stop offset="1" stop-color="#2948FF"/>
</linearGradient>
<linearGradient id="paint3_linear" x1="126.901" y1="23.4248" x2="24.4898" y2="23.4248" gradientUnits="userSpaceOnUse">
<stop stop-color="#396AFC"/>
<stop offset="1" stop-color="#2948FF"/>
</linearGradient>
<linearGradient id="paint4_linear" x1="126.901" y1="23.4248" x2="24.4898" y2="23.4248" gradientUnits="userSpaceOnUse">
<stop stop-color="#396AFC"/>
<stop offset="1" stop-color="#2948FF"/>
</linearGradient>
<linearGradient id="paint5_linear" x1="126.901" y1="23.4248" x2="24.4898" y2="23.4248" gradientUnits="userSpaceOnUse">
<stop stop-color="#396AFC"/>
<stop offset="1" stop-color="#2948FF"/>
</linearGradient>
<linearGradient id="paint6_linear" x1="126.901" y1="23.4248" x2="24.4898" y2="23.4248" gradientUnits="userSpaceOnUse">
<stop stop-color="#396AFC"/>
<stop offset="1" stop-color="#2948FF"/>
</linearGradient>
<linearGradient id="paint7_linear" x1="126.901" y1="23.4248" x2="24.4898" y2="23.4248" gradientUnits="userSpaceOnUse">
<stop stop-color="#396AFC"/>
<stop offset="1" stop-color="#2948FF"/>
</linearGradient>
</defs>
</svg>
