<svg width="14" height="14" viewBox="0 0 14 14" fill="none" xmlns="http://www.w3.org/2000/svg">
<g id="icon/LeftArrowFilled">
<path id="&#240;&#159;&#142;&#168; Icon &#208;&#161;olor" fill-rule="evenodd" clip-rule="evenodd" d="M2.91669 7.5833L9.83794 7.5833L7.71869 10.1266C7.51219 10.374 7.54602 10.7421 7.79335 10.948C8.04127 11.1545 8.40877 11.1206 8.61469 10.8733L11.5314 7.3733C11.5541 7.34589 11.5658 7.3138 11.5827 7.28347C11.5967 7.25897 11.6136 7.23797 11.6241 7.21114C11.6504 7.14405 11.6661 7.07347 11.6661 7.0023C11.6661 7.00172 11.6667 7.00056 11.6667 6.99997C11.6667 6.99939 11.6661 6.99822 11.6661 6.99764C11.6661 6.92647 11.6504 6.85589 11.6241 6.78881C11.6136 6.76197 11.5967 6.74097 11.5827 6.71647C11.5658 6.68614 11.5541 6.65405 11.5314 6.62664L8.61469 3.12664C8.49919 2.98839 8.33352 2.91664 8.16669 2.91664C8.03485 2.91664 7.90244 2.96097 7.79335 3.05197C7.54602 3.25789 7.51219 3.62597 7.71869 3.8733L9.83794 6.41664L2.91669 6.41664C2.59469 6.41664 2.33336 6.67797 2.33336 6.99997C2.33336 7.32197 2.59469 7.5833 2.91669 7.5833Z" fill="#A2A2A2"/>
<mask id="mask0" mask-type="alpha" maskUnits="userSpaceOnUse" x="2" y="2" width="10" height="10">
<path id="&#240;&#159;&#142;&#168; Icon &#208;&#161;olor_2" fill-rule="evenodd" clip-rule="evenodd" d="M2.91669 7.5833L9.83794 7.5833L7.71869 10.1266C7.51219 10.374 7.54602 10.7421 7.79335 10.948C8.04127 11.1545 8.40877 11.1206 8.61469 10.8733L11.5314 7.3733C11.5541 7.34589 11.5658 7.3138 11.5827 7.28347C11.5967 7.25897 11.6136 7.23797 11.6241 7.21114C11.6504 7.14405 11.6661 7.07347 11.6661 7.0023C11.6661 7.00172 11.6667 7.00056 11.6667 6.99997C11.6667 6.99939 11.6661 6.99822 11.6661 6.99764C11.6661 6.92647 11.6504 6.85589 11.6241 6.78881C11.6136 6.76197 11.5967 6.74097 11.5827 6.71647C11.5658 6.68614 11.5541 6.65405 11.5314 6.62664L8.61469 3.12664C8.49919 2.98839 8.33352 2.91664 8.16669 2.91664C8.03485 2.91664 7.90244 2.96097 7.79335 3.05197C7.54602 3.25789 7.51219 3.62597 7.71869 3.8733L9.83794 6.41664L2.91669 6.41664C2.59469 6.41664 2.33336 6.67797 2.33336 6.99997C2.33336 7.32197 2.59469 7.5833 2.91669 7.5833Z" fill="white"/>
</mask>
<g mask="url(#mask0)">
</g>
</g>
</svg>
